<svg width="20" height="23" viewBox="0 0 20 23" fill="none" xmlns="http://www.w3.org/2000/svg">
<g filter="url(#filter0_d_288_1145)">
<path d="M8 7.33325H6.66667V8.66659H8V7.33325ZM10.6667 7.33325H9.33333V8.66659H10.6667V7.33325ZM13.3333 7.33325H12V8.66659H13.3333V7.33325ZM14.6667 2.66659H14V1.33325H12.6667V2.66659H7.33333V1.33325H6V2.66659H5.33333C4.59333 2.66659 4.00667 3.26659 4.00667 3.99992L4 13.3333C4 14.0666 4.59333 14.6666 5.33333 14.6666H14.6667C15.4 14.6666 16 14.0666 16 13.3333V3.99992C16 3.26659 15.4 2.66659 14.6667 2.66659ZM14.6667 13.3333H5.33333V5.99992H14.6667V13.3333Z" fill="black" fill-opacity="0.8"/>
</g>
<defs>
<filter id="filter0_d_288_1145" x="-2" y="0" width="24" height="24" filterUnits="userSpaceOnUse" color-interpolation-filters="sRGB">
<feFlood flood-opacity="0" result="BackgroundImageFix"/>
<feColorMatrix in="SourceAlpha" type="matrix" values="0 0 0 0 0 0 0 0 0 0 0 0 0 0 0 0 0 0 127 0" result="hardAlpha"/>
<feOffset dy="4"/>
<feGaussianBlur stdDeviation="2"/>
<feComposite in2="hardAlpha" operator="out"/>
<feColorMatrix type="matrix" values="0 0 0 0 0 0 0 0 0 0 0 0 0 0 0 0 0 0 0.25 0"/>
<feBlend mode="normal" in2="BackgroundImageFix" result="effect1_dropShadow_288_1145"/>
<feBlend mode="normal" in="SourceGraphic" in2="effect1_dropShadow_288_1145" result="shape"/>
</filter>
</defs>
</svg>
