<svg width="24" height="24" viewBox="0 0 24 24" fill="none" xmlns="http://www.w3.org/2000/svg">
<path d="M12.7069 6.92855C12.1628 8.05668 11.5849 9.1673 10.973 10.2604C10.8614 10.4596 10.68 10.5417 10.5474 10.304C9.98612 9.29715 9.45066 8.27699 8.94097 7.24355C8.67941 6.7134 8.45675 6.20809 8.27581 5.69434C8.18206 5.42762 8.10941 5.11637 8.11644 4.83043C8.16753 2.66574 10.6791 1.49996 12.3741 2.82887C12.7944 3.15855 13.0903 3.59121 13.2619 4.12684C13.4288 4.64809 13.411 5.1784 13.2085 5.71777C13.0147 6.23309 12.8475 6.63668 12.7069 6.92855ZM12.0183 4.91574C12.0183 4.74874 11.9854 4.58337 11.9215 4.42908C11.8576 4.27478 11.7639 4.13459 11.6458 4.0165C11.5277 3.89841 11.3876 3.80474 11.2333 3.74083C11.079 3.67692 10.9136 3.64402 10.7466 3.64402C10.5796 3.64402 10.4142 3.67692 10.2599 3.74083C10.1056 3.80474 9.96544 3.89841 9.84735 4.0165C9.72926 4.13459 9.63559 4.27478 9.57168 4.42908C9.50777 4.58337 9.47488 4.74874 9.47488 4.91574C9.47488 5.25302 9.60886 5.57649 9.84735 5.81498C10.0858 6.05348 10.4093 6.18746 10.7466 6.18746C11.0839 6.18746 11.4073 6.05348 11.6458 5.81498C11.8843 5.57649 12.0183 5.25302 12.0183 4.91574Z" fill="black" fill-opacity="0.8"/>
<path d="M10.5802 17.1244C9.77816 16.7405 8.76144 16.8698 8.03675 17.3625C7.30362 17.8617 6.88737 18.6548 6.87565 19.552C6.87554 19.557 6.87352 19.5617 6.87003 19.5652C6.86654 19.5687 6.86184 19.5707 6.8569 19.5708C6.63534 19.572 6.41409 19.572 6.19315 19.5708C5.99503 19.5695 5.85222 19.5552 5.76472 19.5277C5.41456 19.4166 5.17409 19.1011 5.17456 18.7266C5.17519 16.375 5.17644 14.0234 5.17831 11.6719C5.17831 11.1938 5.54487 10.822 6.02347 10.8211C9.1869 10.8161 12.3502 10.8136 15.5133 10.8136C15.9403 10.8141 16.2928 10.9378 16.4517 11.3438C16.4989 11.4641 16.5224 11.67 16.5221 11.9616C16.5208 14.4347 16.5207 16.9069 16.5216 19.3781C16.5216 19.3809 16.5205 19.3836 16.5186 19.3856C16.5167 19.3876 16.5141 19.3888 16.5113 19.3889L12.1997 19.4442C12.1847 19.4445 12.1764 19.4373 12.1749 19.4227C12.0577 18.3436 11.5261 17.5775 10.5802 17.1244ZM8.83193 12.413C8.83208 12.3231 8.81454 12.2341 8.78029 12.151C8.74604 12.0679 8.69576 11.9924 8.63232 11.9287C8.56888 11.8651 8.49353 11.8145 8.41056 11.78C8.32758 11.7454 8.23862 11.7276 8.14875 11.7274L6.80437 11.7251C6.62287 11.7248 6.44867 11.7966 6.3201 11.9247C6.19153 12.0528 6.11912 12.2268 6.11881 12.4083L6.11376 15.2995C6.1136 15.3894 6.13115 15.4784 6.1654 15.5615C6.19964 15.6446 6.24992 15.7201 6.31336 15.7838C6.3768 15.8474 6.45216 15.898 6.53513 15.9325C6.6181 15.9671 6.70706 15.9849 6.79694 15.9851L8.14131 15.9874C8.32282 15.9877 8.49702 15.9159 8.62559 15.7878C8.75415 15.6597 8.82656 15.4858 8.82688 15.3042L8.83193 12.413ZM12.206 12.413C12.2061 12.3231 12.1886 12.2341 12.1544 12.151C12.1201 12.0679 12.0698 11.9924 12.0064 11.9287C11.9429 11.8651 11.8676 11.8145 11.7846 11.78C11.7016 11.7454 11.6127 11.7276 11.5228 11.7274L10.1784 11.7251C9.99693 11.7248 9.82273 11.7966 9.69416 11.9247C9.56559 12.0528 9.49319 12.2268 9.49287 12.4083L9.48782 15.2995C9.48766 15.3894 9.50521 15.4784 9.53946 15.5615C9.57371 15.6446 9.62398 15.7201 9.68742 15.7838C9.75086 15.8474 9.82622 15.898 9.90919 15.9325C9.99216 15.9671 10.0811 15.9849 10.171 15.9851L11.5154 15.9874C11.6969 15.9877 11.8711 15.9159 11.9996 15.7878C12.1282 15.6597 12.2006 15.4858 12.2009 15.3042L12.206 12.413ZM15.5805 12.4097C15.5808 12.2291 15.5094 12.0557 15.3819 11.9278C15.2544 11.7998 15.0813 11.7278 14.9006 11.7274L13.5506 11.7251C13.4612 11.7249 13.3726 11.7424 13.2899 11.7765C13.2072 11.8106 13.132 11.8606 13.0687 11.9237C13.0053 11.9869 12.955 12.0619 12.9206 12.1444C12.8863 12.227 12.8685 12.3155 12.8683 12.405L12.8633 15.3028C12.863 15.4834 12.9344 15.6568 13.0619 15.7847C13.1894 15.9127 13.3626 15.9848 13.5432 15.9851L14.8932 15.9874C14.9826 15.9876 15.0712 15.9701 15.1539 15.936C15.2366 15.902 15.3118 15.8519 15.3751 15.7888C15.4385 15.7256 15.4888 15.6507 15.5232 15.5681C15.5575 15.4855 15.5753 15.397 15.5755 15.3075L15.5805 12.4097Z" fill="black" fill-opacity="0.8"/>
<path d="M4.22289 11.5572L1.89414 11.5531C1.76599 11.5529 1.66193 11.6566 1.6617 11.7848L1.66168 11.8007C1.66145 11.9288 1.76516 12.0329 1.8933 12.0331L4.22205 12.0372C4.3502 12.0374 4.45426 11.9337 4.45448 11.8056L4.45451 11.7896C4.45474 11.6615 4.35103 11.5574 4.22289 11.5572Z" fill="black" fill-opacity="0.8"/>
<path d="M17.0109 18.3051C17.0022 18.3232 16.9978 18.3231 16.9978 18.3047L16.9983 11.8472C16.9983 11.8412 17.0006 11.8355 17.0047 11.8312C17.0089 11.827 17.0145 11.8247 17.0203 11.8247C17.7362 11.824 18.4534 11.8243 19.1719 11.8256C19.3275 11.8256 19.4428 11.9643 19.5323 12.1045C20.1151 13.0189 20.6945 13.9261 21.2705 14.8261C21.294 14.8627 21.3278 14.8913 21.3675 14.9081C22.087 15.2147 22.823 15.5264 23.5059 15.9173C23.6766 16.0148 23.8926 16.1611 23.8959 16.3593C23.9006 16.6409 23.903 16.9218 23.903 17.2022C23.903 17.2048 23.9026 17.2074 23.9016 17.2098C23.9006 17.2123 23.8992 17.2145 23.8974 17.2164C23.8955 17.2183 23.8933 17.2197 23.8909 17.2208C23.8885 17.2218 23.8859 17.2223 23.8833 17.2223L22.0087 17.2228C21.9849 17.2228 21.9614 17.2275 21.9395 17.2367C21.9175 17.2459 21.8976 17.2594 21.8809 17.2764C21.8643 17.2934 21.8512 17.3135 21.8424 17.3356C21.8336 17.3577 21.8292 17.3813 21.8297 17.4051L21.8311 17.4661C21.8339 17.6129 21.9087 17.6864 22.0556 17.6864H23.8716C23.8787 17.6864 23.8855 17.6892 23.8906 17.6942C23.8957 17.6992 23.8986 17.706 23.8987 17.7131C23.9056 17.95 23.908 18.1862 23.9058 18.4218C23.9011 19.0364 23.4253 19.3776 22.8492 19.3856C22.6042 19.389 22.3591 19.3889 22.1137 19.3851C22.0966 19.3848 22.0878 19.3762 22.0875 19.3593C22.0594 17.2781 19.7892 16.0022 18.0211 17.1314C17.5848 17.4101 17.2481 17.8014 17.0109 18.3051Z" fill="black" fill-opacity="0.8"/>
<path d="M8.1389 12.1893H6.79358C6.67553 12.1893 6.57983 12.285 6.57983 12.4031V15.3084C6.57983 15.4264 6.67553 15.5221 6.79358 15.5221H8.1389C8.25695 15.5221 8.35265 15.4264 8.35265 15.3084V12.4031C8.35265 12.285 8.25695 12.1893 8.1389 12.1893Z" fill="black" fill-opacity="0.8"/>
<path d="M11.528 12.1893H10.1817C10.0644 12.1893 9.96936 12.2844 9.96936 12.4017V15.3098C9.96936 15.4271 10.0644 15.5221 10.1817 15.5221H11.528C11.6452 15.5221 11.7403 15.4271 11.7403 15.3098V12.4017C11.7403 12.2844 11.6452 12.1893 11.528 12.1893Z" fill="black" fill-opacity="0.8"/>
<path d="M14.9007 12.1893H13.5572C13.4389 12.1893 13.343 12.2852 13.343 12.4035V15.3079C13.343 15.4262 13.4389 15.5221 13.5572 15.5221H14.9007C15.019 15.5221 15.1149 15.4262 15.1149 15.3079V12.4035C15.1149 12.2852 15.019 12.1893 14.9007 12.1893Z" fill="black" fill-opacity="0.8"/>
<path d="M4.22677 13.8347H0.32958C0.203245 13.8347 0.10083 13.9371 0.10083 14.0635V14.07C0.10083 14.1964 0.203245 14.2988 0.32958 14.2988H4.22677C4.3531 14.2988 4.45552 14.1964 4.45552 14.07V14.0635C4.45552 13.9371 4.3531 13.8347 4.22677 13.8347Z" fill="black" fill-opacity="0.8"/>
<path d="M4.23648 16.1023L1.88055 16.0982C1.75991 16.0979 1.66194 16.1956 1.66173 16.3162L1.66169 16.3406C1.66148 16.4612 1.7591 16.5592 1.87974 16.5594L4.23568 16.5635C4.35631 16.5637 4.45428 16.4661 4.45449 16.3455L4.45454 16.3211C4.45475 16.2005 4.35712 16.1025 4.23648 16.1023Z" fill="black" fill-opacity="0.8"/>
<path d="M11.7084 19.544C11.7084 20.1215 11.479 20.6753 11.0707 21.0837C10.6624 21.492 10.1086 21.7214 9.5311 21.7214C8.95364 21.7214 8.39982 21.492 7.99149 21.0837C7.58316 20.6753 7.35376 20.1215 7.35376 19.544C7.35376 18.9666 7.58316 18.4128 7.99149 18.0044C8.39982 17.5961 8.95364 17.3667 9.5311 17.3667C10.1086 17.3667 10.6624 17.5961 11.0707 18.0044C11.479 18.4128 11.7084 18.9666 11.7084 19.544ZM10.6252 19.5478C10.6252 19.258 10.51 18.9801 10.3051 18.7752C10.1002 18.5703 9.8223 18.4551 9.53251 18.4551C9.24272 18.4551 8.9648 18.5703 8.75988 18.7752C8.55497 18.9801 8.43985 19.258 8.43985 19.5478C8.43985 19.8376 8.55497 20.1155 8.75988 20.3204C8.9648 20.5253 9.24272 20.6404 9.53251 20.6404C9.8223 20.6404 10.1002 20.5253 10.3051 20.3204C10.51 20.1155 10.6252 19.8376 10.6252 19.5478Z" fill="black" fill-opacity="0.8"/>
<path d="M21.8175 19.5436C21.8175 20.1209 21.5881 20.6746 21.1799 21.0829C20.7717 21.4911 20.218 21.7204 19.6406 21.7204C19.0633 21.7204 18.5096 21.4911 18.1013 21.0829C17.6931 20.6746 17.4637 20.1209 17.4637 19.5436C17.4637 18.9662 17.6931 18.4125 18.1013 18.0043C18.5096 17.596 19.0633 17.3667 19.6406 17.3667C20.218 17.3667 20.7717 17.596 21.1799 18.0043C21.5881 18.4125 21.8175 18.9662 21.8175 19.5436ZM20.7342 19.5478C20.7342 19.258 20.6191 18.9801 20.4142 18.7752C20.2093 18.5703 19.9313 18.4551 19.6416 18.4551C19.3518 18.4551 19.0738 18.5703 18.8689 18.7752C18.664 18.9801 18.5489 19.258 18.5489 19.5478C18.5489 19.8376 18.664 20.1155 18.8689 20.3204C19.0738 20.5253 19.3518 20.6404 19.6416 20.6404C19.9313 20.6404 20.2093 20.5253 20.4142 20.3204C20.6191 20.1155 20.7342 19.8376 20.7342 19.5478Z" fill="black" fill-opacity="0.8"/>
<path d="M4.22817 18.3633H0.328174C0.202615 18.3633 0.10083 18.4651 0.10083 18.5906V18.5972C0.10083 18.7227 0.202615 18.8245 0.328174 18.8245H4.22817C4.35373 18.8245 4.45552 18.7227 4.45552 18.5972V18.5906C4.45552 18.4651 4.35373 18.3633 4.22817 18.3633Z" fill="black" fill-opacity="0.8"/>
</svg>
